<svg width="48" height="48" viewBox="0 0 48 48" fill="none" xmlns="http://www.w3.org/2000/svg">
<path d="M24 48C37.2548 48 48 37.2548 48 24C48 10.7452 37.2548 0 24 0C10.7452 0 0 10.7452 0 24C0 37.2548 10.7452 48 24 48Z" fill="url(#paint0_linear_1339_765)"/>
<path fill-rule="evenodd" clip-rule="evenodd" d="M14.8981 12.6979H24.0404C29.6015 12.6979 33.8168 15.6869 35.385 20.0362H38.2328V22.6651H35.9847C36.0287 23.0806 36.0512 23.5037 36.0512 23.9338V23.9983C36.0512 24.4824 36.0227 24.9583 35.967 25.4244H38.2328V28.0531H35.3307C33.7213 32.3419 29.5386 35.3026 24.0404 35.3026H14.8981V28.0531H11.7212V25.4244H14.8981V22.6651H11.7212V20.0362H14.8981V12.6979ZM17.4539 28.0531V32.9443H24.0404C28.1048 32.9443 31.1245 30.9855 32.5302 28.0531H17.4539ZM33.3133 25.4244H17.4539V22.6651H33.3174C33.3762 23.0993 33.4062 23.5445 33.4062 23.9983V24.0629C33.4062 24.5271 33.3747 24.9816 33.3133 25.4244ZM24.0404 15.0522C28.1235 15.0522 31.1523 17.0629 32.5496 20.0362H17.4539V15.0522H24.0404Z" fill="white"/>
<defs>
<linearGradient id="paint0_linear_1339_765" x1="24" y1="-6.8" x2="24" y2="53.04" gradientUnits="userSpaceOnUse">
<stop stop-color="#F9A606"/>
<stop offset="1" stop-color="#FBCC5F"/>
</linearGradient>
</defs>
</svg>
