<svg width="48" height="48" viewBox="0 0 48 48" fill="none" xmlns="http://www.w3.org/2000/svg">
<path d="M24 47.9999C28.7468 47.9999 33.3869 46.5924 37.3337 43.9552C41.2804 41.3181 44.3566 37.5698 46.1731 33.1844C47.9896 28.799 48.4649 23.9734 47.5389 19.3179C46.6128 14.6624 44.3271 10.386 40.9706 7.02952C37.6142 3.67306 33.3379 1.38726 28.6823 0.461193C24.0268 -0.464878 19.2012 0.0103662 14.8158 1.82683C10.4304 3.64329 6.68209 6.71939 4.04491 10.6661C1.40773 14.6129 0.000118414 19.253 7.0118e-05 23.9997C-0.00756247 27.1536 0.608003 30.2779 1.81141 33.1932C3.01481 36.1084 4.78234 38.7572 7.01246 40.9874C9.24258 43.2175 11.8913 44.9851 14.8066 46.1885C17.7219 47.3919 20.8462 48.0075 24 47.9999Z" fill="#2775CA"/>
<path d="M30.6007 27.7995C30.6007 24.2996 28.5007 23.0996 24.3006 22.5998C21.3005 22.1998 20.6998 21.3998 20.6998 19.9997C20.6998 18.5995 21.701 17.6997 23.6999 17.6997C25.4998 17.6997 26.5 18.2996 26.9999 19.7997C27.0515 19.9446 27.1462 20.0702 27.2714 20.1596C27.3966 20.249 27.5462 20.2978 27.7 20.2995H29.2999C29.3924 20.3018 29.4844 20.2852 29.5704 20.2508C29.6563 20.2165 29.7344 20.165 29.7998 20.0996C29.8653 20.0341 29.9168 19.9561 29.9512 19.8702C29.9856 19.7842 30.0022 19.6922 30 19.5997V19.4996C29.8064 18.4158 29.2603 17.4264 28.4465 16.685C27.6327 15.9436 26.5969 15.4917 25.4998 15.3997V12.9998C25.4998 12.5998 25.1997 12.2997 24.6999 12.1996H23.1998C22.7999 12.1996 22.4998 12.4997 22.3996 12.9998V15.2998C19.3995 15.6998 17.4998 17.6999 17.4998 20.1999C17.4998 23.4999 19.4997 24.7997 23.6997 25.3C26.4998 25.7999 27.3999 26.3988 27.3999 28C27.3999 29.6011 25.9997 30.7 24.0999 30.7C21.4998 30.7 20.5997 29.5999 20.2999 28.0999C20.2699 27.9346 20.184 27.7848 20.0566 27.6755C19.9291 27.5662 19.7679 27.5042 19.6 27.4999H17.8998C17.8072 27.4977 17.7152 27.5143 17.6293 27.5487C17.5434 27.5831 17.4653 27.6346 17.3999 27.7C17.3345 27.7655 17.283 27.8436 17.2486 27.9295C17.2142 28.0154 17.1977 28.1074 17.1999 28.2V28.3001C17.5996 30.7998 19.1998 32.6 22.4988 33.1001V35.5002C22.4988 35.8999 22.7989 36.2 23.2987 36.3001H24.7988C25.1988 36.3001 25.4989 36 25.599 35.5002V33.1001C28.5991 32.6 30.599 30.5 30.599 27.8L30.6007 27.7995Z" fill="#EDF0EB"/>
<path d="M18.9007 38.2998C16.0228 37.245 13.5383 35.3318 11.7831 32.819C10.0279 30.3062 9.08663 27.315 9.08663 24.2499C9.08663 21.1848 10.0279 18.1936 11.7831 15.6808C13.5383 13.168 16.0228 11.2548 18.9007 10.2C19.0926 10.1164 19.2536 9.97504 19.3612 9.79553C19.4687 9.61602 19.5175 9.40738 19.5007 9.19879V7.79886C19.5143 7.61551 19.4611 7.43343 19.3507 7.28635C19.2404 7.13926 19.0805 7.03714 18.9007 6.9989C18.7598 6.9841 18.6182 7.01947 18.5007 7.09878C14.86 8.25573 11.682 10.5412 9.42662 13.6245C7.17124 16.7077 5.95557 20.4287 5.95557 24.2488C5.95557 28.0689 7.17124 31.7899 9.42662 34.8731C11.682 37.9563 14.86 40.2419 18.5007 41.3988C18.5839 41.4471 18.6772 41.4749 18.7732 41.4801C18.8692 41.4853 18.965 41.4676 19.0529 41.4286C19.1407 41.3895 19.218 41.3302 19.2785 41.2555C19.339 41.1808 19.3809 41.0929 19.4008 40.9988C19.5009 40.899 19.5009 40.7988 19.5009 40.5991V39.1989C19.5007 38.8998 19.2006 38.4998 18.9007 38.2998ZM29.4999 7.09976C29.4168 7.05151 29.3234 7.02365 29.2274 7.01848C29.1314 7.0133 29.0356 7.03096 28.9478 7.06999C28.8599 7.10902 28.7826 7.16832 28.7221 7.24302C28.6616 7.31773 28.6197 7.4057 28.5998 7.49974C28.4997 7.59985 28.4997 7.69973 28.4997 7.89972V9.29964C28.5168 9.50122 28.5797 9.69623 28.6837 9.86976C28.7877 10.0433 28.93 10.1907 29.0997 10.3008C31.9776 11.3557 34.4621 13.2689 36.2173 15.7817C37.9725 18.2944 38.9138 21.2856 38.9138 24.3507C38.9138 27.4159 37.9725 30.407 36.2173 32.9198C34.4621 35.4326 31.9776 37.3458 29.0997 38.4007C28.9078 38.4842 28.7468 38.6256 28.6392 38.8051C28.5317 38.9846 28.4829 39.1933 28.4997 39.4018V40.8018C28.4861 40.9851 28.5393 41.1672 28.6497 41.3143C28.76 41.4614 28.9199 41.5635 29.0997 41.6017C29.2406 41.6165 29.3822 41.5812 29.4997 41.5019C33.1385 40.3284 36.3113 38.0312 38.562 34.9406C40.8127 31.8499 42.0253 28.1251 42.0253 24.3018C42.0253 20.4785 40.8127 16.7537 38.562 13.663C36.3113 10.5724 33.1385 8.27515 29.4997 7.10171L29.4999 7.09976Z" fill="#EDF0EB"/>
</svg>
