<svg width="32" height="30" viewBox="0 0 32 30" fill="none" xmlns="http://www.w3.org/2000/svg">
<path d="M29.7741 1L17.9486 9.75L20.1477 4.59334L29.7741 1Z" fill="#E17726" stroke="#E17726" stroke-width="0.25" stroke-linecap="round" stroke-linejoin="round"/>
<path d="M2.49716 1L14.2173 9.83166L12.1236 4.59333L2.49716 1Z" fill="#E27625" stroke="#E27625" stroke-width="0.25" stroke-linecap="round" stroke-linejoin="round"/>
<path d="M25.5162 21.2883L22.3698 26.095L29.1071 27.95L31.0371 21.3934L25.5162 21.2883Z" fill="#E27625" stroke="#E27625" stroke-width="0.25" stroke-linecap="round" stroke-linejoin="round"/>
<path d="M1.24554 21.3934L3.1638 27.95L9.88947 26.095L6.75471 21.2883L1.24554 21.3934Z" fill="#E27625" stroke="#E27625" stroke-width="0.25" stroke-linecap="round" stroke-linejoin="round"/>
<path d="M9.52678 13.1683L7.65533 15.9916L14.3225 16.295L14.1003 9.11997L9.52678 13.1683Z" fill="#E27625" stroke="#E27625" stroke-width="0.25" stroke-linecap="round" stroke-linejoin="round"/>
<path d="M22.744 13.1684L18.1005 9.03842L17.9484 16.2951L24.6155 15.9918L22.744 13.1684Z" fill="#E27625" stroke="#E27625" stroke-width="0.25" stroke-linecap="round" stroke-linejoin="round"/>
<path d="M9.88956 26.0949L13.9249 24.1466L10.451 21.44L9.88956 26.0949Z" fill="#E27625" stroke="#E27625" stroke-width="0.25" stroke-linecap="round" stroke-linejoin="round"/>
<path d="M18.3463 24.1466L22.3699 26.0949L21.8202 21.44L18.3463 24.1466Z" fill="#E27625" stroke="#E27625" stroke-width="0.25" stroke-linecap="round" stroke-linejoin="round"/>
<path d="M22.3699 26.0951L18.3463 24.1468L18.6738 26.7601L18.6387 27.8684L22.3699 26.0951Z" fill="#D5BFB2" stroke="#D5BFB2" stroke-width="0.25" stroke-linecap="round" stroke-linejoin="round"/>
<path d="M9.88956 26.0951L13.6325 27.8684L13.6091 26.7601L13.9249 24.1468L9.88956 26.0951Z" fill="#D5BFB2" stroke="#D5BFB2" stroke-width="0.25" stroke-linecap="round" stroke-linejoin="round"/>
<path d="M13.7026 19.7133L10.3573 18.7334L12.72 17.6484L13.7026 19.7133Z" fill="#233447" stroke="#233447" stroke-width="0.25" stroke-linecap="round" stroke-linejoin="round"/>
<path d="M18.5685 19.7133L19.5511 17.6484L21.9255 18.7334L18.5685 19.7133Z" fill="#233447" stroke="#233447" stroke-width="0.25" stroke-linecap="round" stroke-linejoin="round"/>
<path d="M9.88946 26.095L10.4743 21.2883L6.75476 21.3934L9.88946 26.095Z" fill="#CC6228" stroke="#CC6228" stroke-width="0.25" stroke-linecap="round" stroke-linejoin="round"/>
<path d="M21.7967 21.2883L22.3698 26.095L25.5162 21.3934L21.7967 21.2883Z" fill="#CC6228" stroke="#CC6228" stroke-width="0.25" stroke-linecap="round" stroke-linejoin="round"/>
<path d="M24.6155 15.9916L17.9484 16.2949L18.5683 19.7134L19.5509 17.6483L21.9253 18.7333L24.6155 15.9916Z" fill="#CC6228" stroke="#CC6228" stroke-width="0.25" stroke-linecap="round" stroke-linejoin="round"/>
<path d="M10.3573 18.7333L12.72 17.6483L13.7026 19.7134L14.3225 16.2949L7.65533 15.9916L10.3573 18.7333Z" fill="#CC6228" stroke="#CC6228" stroke-width="0.25" stroke-linecap="round" stroke-linejoin="round"/>
<path d="M7.65558 15.9916L10.4511 21.44L10.3575 18.7333L7.65558 15.9916Z" fill="#E27525" stroke="#E27525" stroke-width="0.25" stroke-linecap="round" stroke-linejoin="round"/>
<path d="M21.9255 18.7333L21.8203 21.44L24.6158 15.9916L21.9255 18.7333Z" fill="#E27525" stroke="#E27525" stroke-width="0.25" stroke-linecap="round" stroke-linejoin="round"/>
<path d="M14.3228 16.295L13.7029 19.7134L14.4865 23.75L14.662 18.43L14.3228 16.295Z" fill="#E27525" stroke="#E27525" stroke-width="0.25" stroke-linecap="round" stroke-linejoin="round"/>
<path d="M17.9486 16.295L17.6211 18.4184L17.7848 23.75L18.5685 19.7134L17.9486 16.295Z" fill="#E27525" stroke="#E27525" stroke-width="0.25" stroke-linecap="round" stroke-linejoin="round"/>
<path d="M18.5685 19.7134L17.7849 23.75L18.3463 24.1467L21.8203 21.44L21.9255 18.7334L18.5685 19.7134Z" fill="#F5841F" stroke="#F5841F" stroke-width="0.25" stroke-linecap="round" stroke-linejoin="round"/>
<path d="M10.3573 18.7334L10.4509 21.44L13.9248 24.1467L14.4863 23.75L13.7026 19.7134L10.3573 18.7334Z" fill="#F5841F" stroke="#F5841F" stroke-width="0.25" stroke-linecap="round" stroke-linejoin="round"/>
<path d="M18.6387 27.8683L18.6738 26.76L18.3697 26.5033H13.9016L13.6091 26.76L13.6325 27.8683L9.88956 26.095L11.1996 27.1683L13.8548 29H18.4047L21.0716 27.1683L22.3699 26.095L18.6387 27.8683Z" fill="#C0AC9D" stroke="#C0AC9D" stroke-width="0.25" stroke-linecap="round" stroke-linejoin="round"/>
<path d="M18.3462 24.1466L17.7847 23.75H14.4863L13.9249 24.1466L13.609 26.76L13.9015 26.5033H18.3696L18.6738 26.76L18.3462 24.1466Z" fill="#161616" stroke="#161616" stroke-width="0.25" stroke-linecap="round" stroke-linejoin="round"/>
<path d="M30.2769 10.3216L31.2712 5.49167L29.774 1L18.3463 9.45837L22.7442 13.1683L28.9552 14.9767L30.3238 13.3784L29.7273 12.9466L30.6746 12.0834L29.9495 11.5234L30.8969 10.8L30.2769 10.3216Z" fill="#763E1A" stroke="#763E1A" stroke-width="0.25" stroke-linecap="round" stroke-linejoin="round"/>
<path d="M1 5.49167L2.00592 10.3216L1.3626 10.8L2.32173 11.5234L1.59654 12.0834L2.54397 12.9466L1.94743 13.3784L3.31596 14.9767L9.52698 13.1683L13.9249 9.45837L2.49719 1L1 5.49167Z" fill="#763E1A" stroke="#763E1A" stroke-width="0.25" stroke-linecap="round" stroke-linejoin="round"/>
<path d="M28.9553 14.9766L22.7443 13.1683L24.6158 15.9917L21.8203 21.4399L25.5164 21.3933H31.0373L28.9553 14.9766Z" fill="#F5841F" stroke="#F5841F" stroke-width="0.25" stroke-linecap="round" stroke-linejoin="round"/>
<path d="M9.5268 13.1683L3.31587 14.9766L1.24554 21.3933H6.75471L10.4508 21.4399L7.65536 15.9917L9.5268 13.1683Z" fill="#F5841F" stroke="#F5841F" stroke-width="0.25" stroke-linecap="round" stroke-linejoin="round"/>
<path d="M17.9485 16.295L18.3462 9.45828L20.1475 4.59332H12.1235L13.9248 9.45828L14.3225 16.295L14.4746 18.4417L14.4863 23.75H17.7847L17.7965 18.4417L17.9485 16.295Z" fill="#F5841F" stroke="#F5841F" stroke-width="0.25" stroke-linecap="round" stroke-linejoin="round"/>
</svg>
