<svg width="24" height="36" viewBox="0 0 24 36" fill="none" xmlns="http://www.w3.org/2000/svg">
<path d="M0.355896 20.6961L1.22786 20.3224L11.905 15.6779L23.4541 20.6961L19.1121 29.6649L8.50612 31.1597L0.533849 22.5468L0.355896 20.6961Z" fill="#133444"/>
<path d="M21.0518 15.1792C19.1477 12.8836 16.4428 11.3888 13.4888 10.9973C13.4176 10.9973 13.3642 10.9795 13.293 10.9795C12.3677 10.8727 11.4423 10.8727 10.517 10.9795C10.4458 10.9795 10.3924 10.9973 10.3212 10.9973C7.36722 11.3888 4.66234 12.8836 2.75825 15.1792L2.27778 15.98L1.47699 17.3146L0.889747 18.2933C0.889747 18.3289 0.871952 18.3467 0.854156 18.3645V18.3823L2.13541 19.1475L10.3212 23.9878L11.905 24.9132V13.3463L10.3212 14.0581V12.3319L11.905 11.6201L13.4888 12.3319L21.5322 15.98L21.0518 15.1792Z" fill="#C42370"/>
<path d="M23.8101 23.579C23.7923 27.3694 22.0839 30.9462 19.1477 33.3486C18.0266 34.2562 16.7631 34.968 15.3929 35.4306C14.2718 35.8043 13.0973 36.0001 11.9228 36.0001C5.33857 36.0001 0.0177917 30.1454 0.0177917 23.579C0.0177917 22.6003 0.142359 21.6393 0.373697 20.6962L11.9228 27.5295L23.4719 20.6962C23.6855 21.6393 23.8101 22.6003 23.8101 23.579Z" fill="#1C4D6B"/>
<path d="M10.517 10.9618L11.905 11.6024L10.3212 12.3142V10.8906L10.517 10.9618Z" fill="black"/>
<path d="M10.3212 14.0583L11.905 13.3287V24.8956L10.3212 23.9703V14.0583Z" fill="black"/>
<path d="M11.905 13.3287V24.8956L22.9737 18.3648L11.905 13.3287Z" fill="#1D4259"/>
<path d="M11.905 0V13.3287L22.9737 18.3647L11.905 0Z" fill="#4B6B9A"/>
<path d="M11.905 13.3285V24.8954L10.3212 23.97L0.854156 18.3645C0.854156 18.3289 0.871952 18.3111 0.889747 18.2933L2.27778 15.9978L10.3212 12.3497V14.0937L11.905 13.3285Z" fill="#343535"/>
<path d="M11.905 13.3287V24.8956L10.3213 23.9703L0.854191 18.3648H0.836395L0.854191 18.347L10.3213 14.0583L11.905 13.3287Z" fill="#3E5578"/>
<path d="M11.905 0V13.3287L0.836395 18.3647L11.905 0Z" fill="#6DB2D8"/>
<path d="M7.42062 35.0565C7.58078 35.1277 7.75873 35.1989 7.91889 35.2701C7.75873 35.1989 7.59858 35.1277 7.42062 35.0565Z" fill="#335F8A"/>
<path d="M7.91888 35.2524C8.07904 35.3236 8.25699 35.377 8.43495 35.4304C8.25699 35.377 8.09684 35.3236 7.91888 35.2524Z" fill="#335F8A"/>
<path d="M8.87982 35.5728C9.02218 35.6083 9.14675 35.6439 9.27132 35.6795L8.87982 35.5728Z" fill="#335F8A"/>
<path d="M0.355905 20.6962L11.905 27.5295C11.7449 28.5617 11.4779 29.576 11.0687 30.5547C10.1433 32.7969 8.2748 35.1459 4.66236 33.3486C1.72614 30.9462 0.0177953 27.3516 0 23.5612C0 22.6003 0.124567 21.6393 0.355905 20.6962Z" fill="#6DB2D8"/>
<path d="M19.1121 33.3659C19.041 33.4193 19.1121 33.3659 18.8808 33.5616L18.774 33.6328L18.6139 33.7396L18.4181 33.8819C18.6139 33.7396 18.258 33.9887 18.1868 34.0421C18.1156 34.0777 18.0622 34.1133 17.991 34.1667L17.8665 34.2556C17.8309 34.2734 17.7775 34.309 17.7419 34.3446C17.7419 34.3446 17.6885 34.398 17.6707 34.398C17.7419 34.3446 17.5817 34.4336 17.5106 34.487C17.4216 34.5226 17.3504 34.5582 17.2792 34.6115L17.0301 34.7361L16.9233 34.7895C16.8521 34.8251 16.8877 34.7895 16.8165 34.8429C16.7454 34.8963 16.6564 34.9141 16.5674 34.9674C16.4784 35.0208 16.5674 34.9674 16.2649 35.1098C16.5674 34.9674 16.2649 35.1098 16.1047 35.181C16.2649 35.1098 15.82 35.2878 15.6243 35.3589C15.5531 35.3767 15.1616 35.5013 15.0904 35.5191C15.0192 35.5369 14.9302 35.5725 14.8591 35.5903C14.7167 35.6259 14.5921 35.6615 14.4676 35.697C14.4142 35.7148 14.3608 35.7148 14.3252 35.7326L14.2362 35.7504L14.0227 35.8038C13.9515 35.8216 13.8981 35.8216 13.8269 35.8394C13.7558 35.8572 13.7024 35.8572 13.649 35.875C13.5956 35.8928 13.5066 35.8928 13.4532 35.9106C13.4177 35.9106 13.3821 35.9106 13.3643 35.9284L13.2219 35.9462H13.1507C13.0973 35.9462 13.044 35.964 12.9906 35.964C12.9372 35.964 12.8482 35.9818 12.777 35.9818H10.9619C10.8907 35.9818 10.8195 35.964 10.7484 35.964C10.695 35.964 10.6416 35.964 10.5882 35.9462H10.517C10.4636 35.9462 10.4103 35.9284 10.3747 35.9284C10.3391 35.9284 10.3035 35.9284 10.2857 35.9106C10.2145 35.9106 10.1611 35.8928 10.0899 35.875C10.0366 35.875 9.96537 35.8572 9.91198 35.8394C9.8586 35.8216 9.78742 35.8216 9.71624 35.8038L9.50269 35.7504L9.41372 35.7326C9.36033 35.7326 9.30695 35.7148 9.27136 35.697C9.12899 35.6615 9.00443 35.6259 8.87986 35.5903L8.64852 35.5191C8.57734 35.5013 8.50616 35.4835 8.43498 35.4479C8.25703 35.3945 8.09687 35.3233 7.91892 35.27C7.74096 35.2166 7.58081 35.1276 7.42065 35.0564C7.34947 35.0208 7.26049 34.9852 7.17152 34.9496C7.08254 34.9141 6.99356 34.8785 6.92238 34.8251C6.83341 34.7895 6.76222 34.7539 6.69104 34.7005C6.61986 34.6649 6.53089 34.6115 6.4597 34.5759C6.38852 34.5404 6.33514 34.5048 6.28175 34.4692C6.1038 34.3624 5.99703 34.2912 6.1038 34.3624L5.99703 34.2912L5.80128 34.1667L5.7301 34.1311L5.55215 34.0065C5.48097 33.9531 5.40978 33.9175 5.3386 33.8641C5.26742 33.8108 5.17845 33.7574 5.10727 33.704C5.03608 33.6506 4.9649 33.5794 4.91152 33.5438L4.84034 33.4904C4.76916 33.4548 4.71577 33.4015 4.66238 33.3481C8.27482 35.1454 10.1255 32.7608 11.0509 30.5364C11.4424 29.5577 11.7271 28.5434 11.8873 27.5112C12.0474 28.5612 12.3143 29.5933 12.7236 30.572C13.6846 32.7786 15.4997 35.1454 19.1121 33.3659Z" fill="#529BBA"/>
<path d="M14.5387 35.6795C14.6811 35.6439 14.8057 35.6083 14.9302 35.5728L14.5387 35.6795Z" fill="#335F8A"/>
<path d="M15.3751 35.4304C15.553 35.377 15.7132 35.3236 15.8912 35.2524C15.7132 35.3236 15.553 35.377 15.3751 35.4304Z" fill="#335F8A"/>
<path d="M15.8556 35.27C16.0157 35.1989 16.2293 35.1277 16.3894 35.0387C16.2115 35.1277 16.0157 35.1989 15.8556 35.27Z" fill="#335F8A"/>
<path d="M23.8101 23.579C23.7923 27.3694 22.0839 30.9462 19.1477 33.3486C15.5353 35.1459 13.6668 32.7791 12.7414 30.5547C12.3499 29.576 12.0652 28.5617 11.905 27.5295L23.4542 20.6962C23.6855 21.6393 23.8101 22.6003 23.8101 23.579Z" fill="#4B6B9A"/>
</svg>
