<svg width="40" height="40" viewBox="0 0 40 40" fill="none" xmlns="http://www.w3.org/2000/svg">
<rect width="40" height="40" rx="20" fill="#0F1010"/>
<path d="M19.87 22.546C19.1887 22.546 18.6473 22.392 18.246 22.084C17.854 21.7667 17.658 21.3047 17.658 20.698C17.658 20.25 17.7653 19.9 17.98 19.648C18.204 19.3867 18.47 19.1953 18.778 19.074C19.086 18.9527 19.4873 18.836 19.982 18.724C20.402 18.6213 20.724 18.5327 20.948 18.458C21.172 18.374 21.3587 18.2573 21.508 18.108C21.6667 17.9493 21.746 17.7393 21.746 17.478C21.746 17.0673 21.6013 16.75 21.312 16.526C21.032 16.2927 20.64 16.176 20.136 16.176C19.6227 16.176 19.198 16.3253 18.862 16.624C18.526 16.9133 18.3487 17.31 18.33 17.814H17C17.0187 17.2447 17.1633 16.75 17.434 16.33C17.7047 15.9007 18.0733 15.574 18.54 15.35C19.0067 15.1167 19.5387 15 20.136 15C21.0507 15 21.7833 15.2287 22.334 15.686C22.8847 16.134 23.16 16.736 23.16 17.492C23.16 17.996 23.034 18.3973 22.782 18.696C22.53 18.9947 22.2267 19.214 21.872 19.354C21.5173 19.4847 21.074 19.6107 20.542 19.732C20.01 19.8533 19.618 19.9747 19.366 20.096C19.1233 20.2173 19.002 20.404 19.002 20.656C19.002 21.1693 19.3193 21.426 19.954 21.426H21.858V22.546H19.87ZM19.212 24.912V23.414H20.724V24.912H19.212Z" fill="#7D8282"/>
</svg>
