<svg width="44" height="45" viewBox="0 0 44 45" fill="none" xmlns="http://www.w3.org/2000/svg">
<path d="M22 44.5C34.1503 44.5 44 34.6503 44 22.5C44 10.3497 34.1503 0.5 22 0.5C9.84974 0.5 0 10.3497 0 22.5C0 34.6503 9.84974 44.5 22 44.5Z" fill="url(#paint0_linear_1578_371)"/>
<path fill-rule="evenodd" clip-rule="evenodd" d="M13.6565 12.1397H22.037C27.1346 12.1397 30.9987 14.8796 32.4362 18.8665H35.0467V21.2764H32.986C33.0262 21.6572 33.0469 22.045 33.0469 22.4393V22.4985C33.0469 22.9422 33.0207 23.3785 32.9697 23.8057H35.0467V26.2154H32.3865C30.9111 30.1468 27.077 32.8607 22.037 32.8607H13.6565V26.2154H10.7444V23.8057H13.6565V21.2764H10.7444V18.8665H13.6565V12.1397ZM15.9994 26.2154V30.699H22.037C25.7627 30.699 28.5307 28.9033 29.8193 26.2154H15.9994ZM30.5371 23.8057H15.9994V21.2764H30.5409C30.5948 21.6743 30.6223 22.0824 30.6223 22.4985V22.5576C30.6223 22.9831 30.5935 23.3998 30.5371 23.8057ZM22.037 14.2979C25.7799 14.2979 28.5563 16.1409 29.8371 18.8665H15.9994V14.2979H22.037Z" fill="white"/>
<defs>
<linearGradient id="paint0_linear_1578_371" x1="22" y1="-5.73333" x2="22" y2="49.12" gradientUnits="userSpaceOnUse">
<stop stop-color="#F9A606"/>
<stop offset="1" stop-color="#FBCC5F"/>
</linearGradient>
</defs>
</svg>
