<svg width="48" height="48" viewBox="0 0 48 48" fill="none" xmlns="http://www.w3.org/2000/svg">
<path d="M24 48C37.2548 48 48 37.2548 48 24C48 10.7452 37.2548 0 24 0C10.7452 0 0 10.7452 0 24C0 37.2548 10.7452 48 24 48Z" fill="white"/>
<path d="M17.0694 41.5309C26.0426 41.5309 26.0426 41.3972 27.5642 40.9457C29.5517 40.3554 21.9504 35.0933 17.0694 35.0933C12.1884 35.0933 8.23193 36.5342 8.23193 38.3117C8.23193 40.0892 12.1882 41.5309 17.0694 41.5309Z" fill="black"/>
<path d="M37.4446 14.1586L37.8571 14.6034L37.4964 15.0909C25.7936 30.914 19.052 38.0784 16.1917 37.1173C14.4495 36.5321 12.7022 34.7718 10.955 32.2158C10.3408 31.3175 9.76421 30.3714 9.23959 29.4299C8.89028 28.8031 8.59459 28.2313 8.44122 27.9093C8.28072 27.5949 8.1649 27.2596 8.09715 26.9131L8.08928 26.8732C8.0619 26.732 8.05178 26.6876 8.0319 26.6107C7.22805 23.5833 7.33311 20.3864 8.33393 17.4185C9.33477 14.4505 11.1871 11.8427 13.66 9.9204C16.1329 7.99806 19.1171 6.84615 22.2401 6.60833C25.3633 6.37048 28.4874 7.05724 31.2228 8.58295L31.2836 8.62045C33.2131 9.9642 35.2668 11.8103 37.4446 14.1586ZM30.4773 9.84238C27.9918 8.46602 25.1564 7.85057 22.3241 8.0725C19.4915 8.29444 16.7867 9.34399 14.5458 11.0907C12.305 12.8374 10.6269 15.2041 9.72021 17.8968C8.81353 20.5895 8.71827 23.4892 9.44622 26.2355C9.4779 26.3548 9.49215 26.4221 9.52572 26.5949L9.53265 26.6304C9.57694 26.8571 9.65421 27.0761 9.76197 27.2803C9.90203 27.5741 10.1835 28.1182 10.5178 28.7184C11.022 29.6233 11.5758 30.5319 12.1629 31.3906C13.7415 33.6999 15.3071 35.2769 16.6577 35.7307C18.459 36.3358 25.2403 29.1573 35.9572 14.7119C34.0115 12.6578 32.1849 11.0346 30.4773 9.84238Z" fill="black"/>
<path d="M30.4776 9.84238C27.9921 8.46609 25.1567 7.85066 22.3244 8.07263C19.4918 8.29459 16.7871 9.34416 14.5462 11.0908C12.3054 12.8375 10.6274 15.2043 9.72069 17.8969C8.81403 20.5895 8.71875 23.4892 9.44666 26.2355C9.47835 26.3548 9.4926 26.4221 9.52616 26.5949L9.5331 26.6304C9.57742 26.8569 9.65469 27.0757 9.76241 27.2799C9.90247 27.5737 10.1839 28.1178 10.5182 28.718C11.0224 29.6229 11.5763 30.5315 12.1633 31.3902C13.7419 33.6995 15.3075 35.2766 16.6581 35.7303C18.4594 36.3354 25.2407 29.1569 35.9577 14.7116C34.012 12.6576 32.1852 11.0345 30.4776 9.84238Z" fill="#EC1C79"/>
<path d="M26.3743 41.3845C23.22 41.3845 20.1367 40.4493 17.514 38.6967C14.8914 36.9443 12.8473 34.4536 11.6403 31.5397C10.4332 28.6255 10.1174 25.4189 10.7327 22.3252C11.3481 19.2316 12.867 16.39 15.0973 14.1596C17.3277 11.9292 20.1693 10.4103 23.2629 9.79497C26.3567 9.17961 29.5633 9.49544 32.4772 10.7025C35.3914 11.9096 37.8821 13.9537 39.6345 16.5763C41.387 19.199 42.3223 22.2824 42.3223 25.4365C42.3223 29.6662 40.6421 33.7227 37.6513 36.7135C34.6605 39.7043 30.6039 41.3845 26.3743 41.3845ZM26.3743 39.922C29.2391 39.922 32.0394 39.0725 34.4214 37.4808C36.8034 35.8893 38.66 33.6271 39.7564 30.9803C40.8525 28.3336 41.1394 25.4213 40.5806 22.6115C40.0217 19.8018 38.6422 17.2209 36.6165 15.1952C34.5907 13.1694 32.01 11.7899 29.2003 11.2309C26.3904 10.672 23.4782 10.9587 20.8314 12.055C18.1846 13.1512 15.9224 15.0077 14.3307 17.3896C12.7391 19.7716 11.8895 22.5719 11.8893 25.4367C11.8893 27.3389 12.264 29.2225 12.9919 30.9798C13.7199 32.7372 14.7868 34.334 16.1319 35.6791C17.4769 37.024 19.0738 38.0911 20.8312 38.819C22.5885 39.5468 24.4721 39.9215 26.3743 39.9215V39.922Z" fill="black"/>
<path d="M26.3744 39.9217C29.2392 39.9217 32.0397 39.0721 34.4217 37.4806C36.8037 35.8889 38.6603 33.6267 39.7566 30.98C40.8529 28.3332 41.1398 25.421 40.5809 22.6111C40.0219 19.8014 38.6425 17.2204 36.6167 15.1947C34.591 13.169 32.01 11.7894 29.2004 11.2305C26.3907 10.6716 23.4782 10.9584 20.8315 12.0547C18.1847 13.151 15.9225 15.0075 14.3309 17.3895C12.7392 19.7714 11.8897 22.5719 11.8896 25.4367C11.8896 27.3389 12.2643 29.2225 12.9922 30.9798C13.7201 32.7372 14.787 34.334 16.1321 35.6791C17.4771 37.0242 19.0739 38.0911 20.8313 38.819C22.5887 39.547 24.4722 39.9217 26.3744 39.9217Z" fill="white"/>
<path fill-rule="evenodd" clip-rule="evenodd" d="M15.5394 28.4038L13.6221 22.6275H15.3017L16.3013 25.9463L17.4075 22.6116H18.7763L19.8825 25.9463L20.8821 22.6275H22.5289L20.6112 28.4038H19.2265L18.0713 25.1019L16.9241 28.4038H15.5394ZM23.1593 28.3628V22.6275H27.7718V23.9794H24.7324V24.8479H27.4857V26.1015H24.7324V27.0111H27.8132V28.3629L23.1593 28.3628ZM30.0253 28.3628V24.0204H28.3048V22.6275H33.3357V24.0204H31.615V28.3629L30.0253 28.3628ZM34.032 28.3628V22.6275H35.6215V24.7742H37.6617V22.6275H39.2511V28.3629H37.6617V26.1834H35.6215V28.3629L34.032 28.3628Z" fill="black"/>
<path d="M8.45024 20.9023C8.26051 20.8026 8.11743 20.6323 8.05169 20.4283C7.98595 20.2243 8.00279 20.0027 8.09858 19.8109C8.19438 19.6191 8.36149 19.4726 8.56413 19.4027C8.76674 19.3326 8.9887 19.3447 9.18242 19.4366L11.5234 20.6072C11.6208 20.6546 11.7079 20.7208 11.7796 20.802C11.8513 20.8834 11.9062 20.9781 11.9411 21.0806C11.9759 21.1832 11.9901 21.2917 11.9827 21.3999C11.9753 21.5079 11.9466 21.6137 11.8981 21.7106C11.8496 21.8076 11.7824 21.8938 11.7004 21.9647C11.6183 22.0354 11.523 22.0892 11.42 22.1229C11.317 22.1567 11.2083 22.1696 11.1003 22.161C10.9922 22.1524 10.887 22.1224 10.7906 22.0729L8.45024 20.9023Z" fill="black"/>
<path d="M8.18112 24.7838C8.08203 24.7396 7.99266 24.6762 7.91826 24.5973C7.84386 24.5183 7.78589 24.4253 7.74772 24.3237C7.70954 24.2223 7.69192 24.1141 7.69585 24.0055C7.69981 23.8972 7.72525 23.7907 7.77072 23.692C7.81619 23.5936 7.88077 23.5051 7.96072 23.4318C8.04067 23.3583 8.1344 23.3017 8.23645 23.2647C8.33851 23.228 8.44687 23.2116 8.55524 23.2171C8.66362 23.2223 8.76983 23.2493 8.86775 23.296L11.2087 24.3764C11.3078 24.4207 11.3971 24.484 11.4715 24.563C11.546 24.6419 11.6039 24.7349 11.6421 24.8365C11.6803 24.938 11.6979 25.0462 11.694 25.1547C11.69 25.2631 11.6646 25.3696 11.6191 25.4682C11.5736 25.5667 11.5091 25.6552 11.4291 25.7285C11.3492 25.802 11.2554 25.8586 11.1534 25.8955C11.0513 25.9323 10.943 25.9486 10.8346 25.9432C10.7262 25.9379 10.62 25.9109 10.5221 25.8642L8.18112 24.7838Z" fill="black"/>
</svg>
