<svg width="177" height="26" viewBox="0 0 177 26" fill="none" xmlns="http://www.w3.org/2000/svg">
<path d="M2.176 25L3.52 22.12V9.76799H0.447998V8.03999H3.328C2.752 7.35733 2.464 6.47199 2.464 5.38399C2.464 4.01866 2.92266 2.89866 3.84 2.02399C4.77867 1.12799 5.96267 0.679993 7.392 0.679993C8.20267 0.679993 8.84267 0.829326 9.312 1.12799C9.78133 1.42666 10.016 1.84266 10.016 2.37599C10.016 2.75999 9.87733 3.06933 9.6 3.30399C9.344 3.53866 8.98133 3.65599 8.512 3.65599C8.192 3.65599 7.79733 3.54933 7.328 3.33599C7.136 3.25066 6.93333 3.17599 6.72 3.11199C6.528 3.04799 6.32533 3.01599 6.112 3.01599C5.45066 3.01599 4.93866 3.21866 4.576 3.62399C4.21333 4.02933 4.032 4.58399 4.032 5.28799C4.032 6.14133 4.32 6.81333 4.896 7.30399C5.49333 7.79466 6.31466 8.03999 7.36 8.03999H9.152V9.76799H6.56V22.632L8.608 25H2.176Z" fill="#EDF0EB"/>
<path d="M16.2177 19.24C16.2177 20.5627 16.5057 21.576 17.0817 22.28C17.6791 22.9627 18.5217 23.304 19.6097 23.304C20.8044 23.304 21.8391 22.888 22.7137 22.056C23.5884 21.224 24.2071 20.0613 24.5697 18.568V10.888L22.0737 8.03999H27.5138V22.152L30.0737 25H24.8897V20.936C23.6097 23.9013 21.5297 25.384 18.6497 25.384C16.9431 25.384 15.5991 24.8613 14.6177 23.816C13.6577 22.7493 13.1777 21.2987 13.1777 19.464V10.632L10.9057 8.03999H16.2177V19.24Z" fill="#EDF0EB"/>
<path d="M39.821 25H33.293L34.669 22.024V4.03999L31.949 0.999992H37.709V22.568L39.821 25Z" fill="#EDF0EB"/>
<path d="M50.0235 25H43.4955L44.8715 22.024V4.03999L42.1515 0.999992H47.9115V22.568L50.0235 25Z" fill="#EDF0EB"/>
<path d="M61.0322 25L62.3762 22.12V9.76799H59.3042V8.03999H62.1842C61.6082 7.35733 61.3202 6.50399 61.3202 5.47999C61.3202 4.56266 61.5443 3.74133 61.9922 3.01599C62.4616 2.29066 63.0909 1.72533 63.8802 1.31999C64.6696 0.893326 65.5549 0.679993 66.5363 0.679993C67.3896 0.679993 68.0723 0.839993 68.5843 1.15999C69.0963 1.45866 69.3522 1.87466 69.3522 2.40799C69.3522 2.77066 69.2136 3.06933 68.9362 3.30399C68.6803 3.53866 68.3176 3.65599 67.8483 3.65599C67.6349 3.65599 67.4216 3.62399 67.2083 3.55999C66.9949 3.49599 66.7816 3.42133 66.5683 3.33599C66.3549 3.25066 66.1416 3.17599 65.9283 3.11199C65.7149 3.04799 65.4909 3.01599 65.2562 3.01599C64.5522 3.01599 63.9762 3.22933 63.5282 3.65599C63.1016 4.08266 62.8882 4.65866 62.8882 5.38399C62.8882 6.19466 63.1869 6.84533 63.7842 7.33599C64.3816 7.80533 65.1922 8.03999 66.2162 8.03999H75.3363V22.568L77.4482 25H70.9202L72.2643 22.024V9.76799H65.4163V22.632L67.4642 25H61.0322ZM73.8002 1.06399C74.3336 1.06399 74.7816 1.25599 75.1442 1.63999C75.5069 2.00266 75.6882 2.46133 75.6882 3.01599C75.6882 3.54933 75.5069 3.99733 75.1442 4.35999C74.8029 4.72266 74.3549 4.90399 73.8002 4.90399C73.2456 4.90399 72.7869 4.72266 72.4243 4.35999C72.0616 3.99733 71.8802 3.54933 71.8802 3.01599C71.8802 2.46133 72.0616 2.00266 72.4243 1.63999C72.7869 1.25599 73.2456 1.06399 73.8002 1.06399Z" fill="#EDF0EB"/>
<path d="M81.1342 25L82.5102 22.024V11.08L79.7902 8.03999H85.2622V12.264C85.9449 10.728 86.8516 9.54399 87.9822 8.71199C89.1129 7.87999 90.4142 7.46399 91.8862 7.46399C93.6142 7.46399 94.9369 8.05066 95.8542 9.22399C96.7716 10.3973 97.2302 12.0933 97.2302 14.312V22.632L99.2782 25H92.8142L94.1582 22.12V14.408C94.1582 11.208 93.0382 9.60799 90.7982 9.60799C89.6036 9.60799 88.5369 10.0453 87.5982 10.92C86.6596 11.7733 85.9769 12.9467 85.5502 14.44V22.568L87.6622 25H81.1342Z" fill="#EDF0EB"/>
<path d="M107.61 25.384C105.903 25.384 104.538 24.9787 103.514 24.168C102.511 23.336 102.01 22.216 102.01 20.808C102.01 19.7413 102.341 18.8347 103.002 18.088C103.685 17.32 104.666 16.7333 105.946 16.328C107.589 15.752 109.829 15.464 112.666 15.464V13.96C112.666 10.4827 111.333 8.74399 108.666 8.74399C107.599 8.74399 106.778 9.01066 106.202 9.54399C105.647 10.056 105.359 10.8133 105.338 11.816C105.295 13.096 104.826 13.736 103.93 13.736C103.503 13.736 103.162 13.576 102.906 13.256C102.65 12.936 102.522 12.4987 102.522 11.944C102.522 11.0907 102.799 10.3227 103.354 9.63999C103.909 8.93599 104.666 8.39199 105.626 8.00799C106.607 7.62399 107.717 7.43199 108.954 7.43199C111.087 7.43199 112.741 8.00799 113.914 9.15999C115.109 10.312 115.706 11.9333 115.706 14.024V21.352C115.706 22.4613 116.101 23.016 116.89 23.016C117.189 23.016 117.413 22.9733 117.562 22.888L117.69 23.016C117.605 23.656 117.349 24.1467 116.922 24.488C116.517 24.8293 115.994 25 115.354 25C114.693 25 114.138 24.7973 113.69 24.392C113.242 23.9867 112.975 23.464 112.89 22.824C112.421 23.6347 111.727 24.264 110.81 24.712C109.914 25.16 108.847 25.384 107.61 25.384ZM108.762 23.72C109.658 23.72 110.437 23.5067 111.098 23.08C111.781 22.6533 112.303 22.0453 112.666 21.256V16.488C111.621 16.488 110.575 16.5733 109.53 16.744C108.506 16.9147 107.685 17.1387 107.066 17.416C105.786 17.992 105.146 18.9733 105.146 20.36C105.146 21.384 105.477 22.2053 106.138 22.824C106.799 23.4213 107.674 23.72 108.762 23.72Z" fill="#EDF0EB"/>
<path d="M121.164 25L122.54 22.024V11.08L119.82 8.03999H125.292V12.264C125.975 10.728 126.882 9.54399 128.012 8.71199C129.143 7.87999 130.444 7.46399 131.916 7.46399C133.644 7.46399 134.967 8.05066 135.884 9.22399C136.802 10.3973 137.26 12.0933 137.26 14.312V22.632L139.308 25H132.844L134.188 22.12V14.408C134.188 11.208 133.068 9.60799 130.828 9.60799C129.634 9.60799 128.567 10.0453 127.628 10.92C126.69 11.7733 126.007 12.9467 125.58 14.44V22.568L127.692 25H121.164Z" fill="#EDF0EB"/>
<path d="M158.232 20.936C156.547 23.9013 153.997 25.384 150.584 25.384C148.899 25.384 147.405 25.032 146.104 24.328C144.824 23.624 143.821 22.632 143.096 21.352C142.392 20.072 142.04 18.568 142.04 16.84C142.04 15.0693 142.413 13.4693 143.16 12.04C143.907 10.6107 144.931 9.49066 146.232 8.67999C147.555 7.84799 149.037 7.43199 150.68 7.43199C151.896 7.43199 153.005 7.65599 154.008 8.10399C155.032 8.55199 155.832 9.15999 156.408 9.92799C157.005 10.6747 157.304 11.496 157.304 12.392C157.304 12.968 157.165 13.416 156.888 13.736C156.632 14.0347 156.259 14.184 155.768 14.184C155.277 14.184 154.904 14.0347 154.648 13.736C154.392 13.416 154.232 12.9147 154.168 12.232C153.912 10.0987 152.771 9.03199 150.744 9.03199C149.08 9.03199 147.747 9.68266 146.744 10.984C145.741 12.2853 145.24 14.0133 145.24 16.168C145.24 18.472 145.816 20.264 146.968 21.544C148.12 22.824 149.72 23.464 151.768 23.464C154.115 23.464 156.173 22.5467 157.944 20.712L158.232 20.936Z" fill="#EDF0EB"/>
<path d="M164.037 16.456C164.144 18.7387 164.762 20.488 165.893 21.704C167.024 22.8987 168.602 23.496 170.629 23.496C171.76 23.496 172.762 23.2827 173.637 22.856C174.533 22.408 175.493 21.672 176.517 20.648L176.805 20.872C175.994 22.3653 174.938 23.496 173.637 24.264C172.336 25.0107 170.821 25.384 169.093 25.384C167.408 25.384 165.936 25.032 164.677 24.328C163.44 23.6027 162.48 22.5893 161.797 21.288C161.136 19.9653 160.805 18.4293 160.805 16.68C160.805 14.8667 161.157 13.2667 161.861 11.88C162.565 10.472 163.546 9.38399 164.805 8.61599C166.085 7.82666 167.557 7.43199 169.221 7.43199C171.546 7.43199 173.317 8.21066 174.533 9.76799C175.77 11.304 176.368 13.5333 176.325 16.456H164.037ZM169.093 8.93599C167.6 8.93599 166.405 9.47999 165.509 10.568C164.613 11.6347 164.112 13.1493 164.005 15.112H173.509C173.509 13.0853 173.136 11.5493 172.389 10.504C171.642 9.45866 170.544 8.93599 169.093 8.93599Z" fill="#EDF0EB"/>
</svg>
